<?xml version="1.0" encoding="UTF-8" standalone="no"?>
<!-- Created with Inkscape (http://www.inkscape.org/) -->

<svg
   xmlns:dc="http://purl.org/dc/elements/1.1/"
   xmlns:cc="http://creativecommons.org/ns#"
   xmlns:rdf="http://www.w3.org/1999/02/22-rdf-syntax-ns#"
   xmlns:svg="http://www.w3.org/2000/svg"
   xmlns="http://www.w3.org/2000/svg"
   xmlns:sodipodi="http://sodipodi.sourceforge.net/DTD/sodipodi-0.dtd"
   xmlns:inkscape="http://www.inkscape.org/namespaces/inkscape"
   width="744.09448819"
   height="1052.3622047"
   id="svg2"
   version="1.1"
   inkscape:version="0.48.4 r9939"
   sodipodi:docname="model_car_marker_svg.svg">
  <defs
     id="defs4" />
  <sodipodi:namedview
     id="base"
     pagecolor="#ffffff"
     bordercolor="#666666"
     borderopacity="1.0"
     inkscape:pageopacity="0.0"
     inkscape:pageshadow="2"
     inkscape:zoom="2.8"
     inkscape:cx="143.50947"
     inkscape:cy="692.18829"
     inkscape:document-units="px"
     inkscape:current-layer="layer1"
     showgrid="false"
     inkscape:window-width="1478"
     inkscape:window-height="858"
     inkscape:window-x="339"
     inkscape:window-y="224"
     inkscape:window-maximized="0" />
  <metadata
     id="metadata7">
    <rdf:RDF>
      <cc:Work
         rdf:about="">
        <dc:format>image/svg+xml</dc:format>
        <dc:type
           rdf:resource="http://purl.org/dc/dcmitype/StillImage" />
        <dc:title />
      </cc:Work>
    </rdf:RDF>
  </metadata>
  <g
     inkscape:label="Layer 1"
     inkscape:groupmode="layer"
     id="layer1">
    <rect
       style="fill:#ececec"
       id="rect2985"
       width="57.6628"
       height="74.949234"
       x="131.42857"
       y="306.64789" />
    <path
       sodipodi:type="arc"
       style="fill:#ececec"
       id="path2997"
       sodipodi:cx="160.86679"
       sodipodi:cy="291.71732"
       sodipodi:rx="29.546963"
       sodipodi:ry="14.142136"
       d="m 190.41375,291.71732 a 29.546963,14.142136 0 1 1 -59.09392,0 29.546963,14.142136 0 1 1 59.09392,0 z"
       transform="matrix(0.99145299,0,0,1.2142857,0.61731534,-49.378871)" />
    <path
       sodipodi:type="arc"
       style="fill:#ececec"
       id="path2999"
       sodipodi:cx="132.07744"
       sodipodi:cy="318.23383"
       sodipodi:rx="4.2931485"
       sodipodi:ry="8.8388348"
       d="m 136.37059,318.23383 a 4.2931485,8.8388348 0 1 1 -8.5863,0 4.2931485,8.8388348 0 1 1 8.5863,0 z"
       transform="translate(0.50507627,-2.5253814)" />
    <path
       sodipodi:type="arc"
       style="fill:#ececec"
       id="path2999-0"
       sodipodi:cx="132.07744"
       sodipodi:cy="318.23383"
       sodipodi:rx="4.2931485"
       sodipodi:ry="8.8388348"
       d="m 136.37059,318.23383 a 4.2931485,8.8388348 0 1 1 -8.5863,0 4.2931485,8.8388348 0 1 1 8.5863,0 z"
       transform="translate(55.810935,-3.2830016)" />
    <path
       sodipodi:type="arc"
       style="fill:#ececec"
       id="path2999-4"
       sodipodi:cx="132.07744"
       sodipodi:cy="318.23383"
       sodipodi:rx="4.2931485"
       sodipodi:ry="8.8388348"
       d="m 136.37059,318.23383 a 4.2931485,8.8388348 0 1 1 -8.5863,0 4.2931485,8.8388348 0 1 1 8.5863,0 z"
       transform="translate(0.25254478,49.244931)" />
    <path
       sodipodi:type="arc"
       style="fill:#ececec"
       id="path2999-3"
       sodipodi:cx="132.07744"
       sodipodi:cy="318.23383"
       sodipodi:rx="4.2931485"
       sodipodi:ry="8.8388348"
       d="m 136.37059,318.23383 a 4.2931485,8.8388348 0 1 1 -8.5863,0 4.2931485,8.8388348 0 1 1 8.5863,0 z"
       transform="translate(56.316012,49.750007)" />
    <path
       style="fill:#00ff00"
       d="m 131.55324,378.57 c 0,-1.91131 -0.24766,-2.92146 -0.83586,-3.40926 -2.37018,-1.96564 -3.06675,-9.18248 -1.27685,-13.22885 0.54345,-1.22855 1.24113,-2.39012 1.5504,-2.58126 0.39559,-0.24449 0.56231,-5.5567 0.56231,-17.91711 0,-16.6844 -0.0489,-17.61379 -0.9698,-18.44723 -2.29718,-2.07892 -2.6412,-9.34431 -0.63835,-13.48165 0.6317,-1.30491 1.10307,-3.24727 1.10307,-4.54538 0,-2.97155 2.02485,-7.00869 4.63643,-9.24411 11.9638,-10.24057 37.07649,-10.24207 48.84411,-0.003 2.55665,2.22457 4.59117,6.18406 4.5983,8.94898 0.003,1.12019 0.42699,2.48536 1.02223,3.29046 2.17979,2.94833 2.19031,10.43239 0.0196,13.94469 -0.99479,1.60961 -1.03689,2.40524 -1.03689,19.59631 0,17.16255 0.0418,17.95642 0.99114,18.81554 2.40614,2.17753 2.9709,9.64318 1.03241,13.64756 -0.60693,1.25376 -1.31052,2.27956 -1.56353,2.27956 -0.25301,0 -0.46002,1.13642 -0.46002,2.52538 l 0,2.52538 -28.78935,0 -28.78934,0 0,-2.71608 z"
       id="path3033"
       inkscape:connector-curvature="0" />
    <path
       sodipodi:type="arc"
       style="fill:#00ff00"
       id="path3035"
       sodipodi:cx="170.21071"
       sodipodi:cy="393.74274"
       sodipodi:rx="30.809652"
       sodipodi:ry="4.0406103"
       d="m 201.02036,393.74274 a 30.809652,4.0406103 0 1 1 -61.6193,0 30.809652,4.0406103 0 1 1 61.6193,0 z"
       transform="matrix(0.93442623,0,0,1,1.5649089,-13.131983)" />
    <path
       style="fill:none;stroke:#000000;stroke-width:4.28228569px;stroke-linecap:butt;stroke-linejoin:miter;stroke-opacity:1"
       d="m 160.95009,370.50921 0,-64.64976 0,0"
       id="path3039"
       inkscape:connector-curvature="0" />
    <path
       style="fill:none;stroke:#000000;stroke-width:5;stroke-linecap:butt;stroke-linejoin:miter;stroke-miterlimit:4;stroke-opacity:1;stroke-dasharray:none"
       d="M 146.42857,328.43362 161.07143,306.29076 175,328.43362"
       id="path2992"
       inkscape:connector-curvature="0"
       sodipodi:nodetypes="ccc" />
  </g>
</svg>
